%
M48
M72
T01C0.02400
T02C0.03200
T03C0.04000
%
T01
X59400Y33500
X64800Y20700
X102700Y28600
X102900Y51400
X114400Y54600
T02
X114500Y66800
X114500Y76800
X114500Y86800
X114500Y96800
X114500Y106800
X114500Y116800
X114500Y126800
X84500Y126800
X84500Y116800
X84500Y106800
X84500Y96800
X84500Y86800
X84500Y76800
X84500Y66800
X74500Y56800
X74500Y41800
X64500Y41800
X54500Y41800
X44500Y41800
X54500Y56800
X64500Y76800
X84500Y41800
X94500Y41800
X104500Y41800
X114500Y41800
X114500Y11800
X104500Y11800
X94500Y11800
X84500Y11800
X74500Y11800
X64500Y11800
X54500Y11800
X44500Y11800
X29500Y46800
X14500Y46800
X14500Y86800
X29500Y86800
X64500Y116800
T03
X14500Y11800
X14500Y21800
X14500Y31800
X24500Y31800
X24500Y21800
X24500Y11800
X44500Y66800
X44500Y76800
X44500Y86800
X44500Y96800
X44500Y106800
X44500Y116800
X44500Y126800
X24500Y126800
X24500Y116800
X24500Y106800
X14500Y106800
X14500Y116800
X14500Y126800
M30
