G75*
%MOIN*%
%OFA0B0*%
%FSLAX25Y25*%
%IPPOS*%
%LPD*%
%AMOC8*
5,1,8,0,0,1.08239X$1,22.5*
%
%ADD10OC8,0.05600*%
%ADD11C,0.05600*%
%ADD12OC8,0.06400*%
%ADD13C,0.06400*%
%ADD14C,0.06400*%
%ADD15C,0.01000*%
%ADD16C,0.04400*%
D10*
X0014500Y0046800D03*
X0029500Y0046800D03*
X0054500Y0056800D03*
X0064500Y0076800D03*
X0074500Y0056800D03*
X0029500Y0086800D03*
X0014500Y0086800D03*
X0064500Y0116800D03*
D11*
X0081700Y0116800D02*
X0087300Y0116800D01*
X0087300Y0106800D02*
X0081700Y0106800D01*
X0081700Y0096800D02*
X0087300Y0096800D01*
X0087300Y0086800D02*
X0081700Y0086800D01*
X0081700Y0076800D02*
X0087300Y0076800D01*
X0087300Y0066800D02*
X0081700Y0066800D01*
X0084500Y0044600D02*
X0084500Y0039000D01*
X0074500Y0039000D02*
X0074500Y0044600D01*
X0064500Y0044600D02*
X0064500Y0039000D01*
X0054500Y0039000D02*
X0054500Y0044600D01*
X0044500Y0044600D02*
X0044500Y0039000D01*
X0044500Y0014600D02*
X0044500Y0009000D01*
X0054500Y0009000D02*
X0054500Y0014600D01*
X0064500Y0014600D02*
X0064500Y0009000D01*
X0074500Y0009000D02*
X0074500Y0014600D01*
X0084500Y0014600D02*
X0084500Y0009000D01*
X0094500Y0009000D02*
X0094500Y0014600D01*
X0104500Y0014600D02*
X0104500Y0009000D01*
X0114500Y0009000D02*
X0114500Y0014600D01*
X0114500Y0039000D02*
X0114500Y0044600D01*
X0104500Y0044600D02*
X0104500Y0039000D01*
X0094500Y0039000D02*
X0094500Y0044600D01*
X0111700Y0066800D02*
X0117300Y0066800D01*
X0117300Y0076800D02*
X0111700Y0076800D01*
X0111700Y0086800D02*
X0117300Y0086800D01*
X0117300Y0096800D02*
X0111700Y0096800D01*
X0111700Y0106800D02*
X0117300Y0106800D01*
X0117300Y0116800D02*
X0111700Y0116800D01*
X0111700Y0126800D02*
X0117300Y0126800D01*
X0087300Y0126800D02*
X0081700Y0126800D01*
D12*
X0014500Y0011800D03*
X0014500Y0021800D03*
X0014500Y0031800D03*
X0024500Y0031800D03*
X0024500Y0021800D03*
X0024500Y0011800D03*
X0024500Y0106800D03*
X0024500Y0116800D03*
X0024500Y0126800D03*
X0014500Y0116800D03*
X0014500Y0106800D03*
D13*
X0014500Y0126800D03*
D14*
X0041300Y0126800D02*
X0047700Y0126800D01*
X0047700Y0116800D02*
X0041300Y0116800D01*
X0041300Y0106800D02*
X0047700Y0106800D01*
X0047700Y0096800D02*
X0041300Y0096800D01*
X0041300Y0086800D02*
X0047700Y0086800D01*
X0047700Y0076800D02*
X0041300Y0076800D01*
X0041300Y0066800D02*
X0047700Y0066800D01*
D15*
X0049100Y0072000D02*
X0037600Y0071500D01*
X0034900Y0074200D01*
X0034900Y0102400D01*
X0034600Y0121600D01*
X0099800Y0121600D01*
X0114300Y0107100D01*
X0114500Y0106800D01*
X0114500Y0096800D02*
X0114300Y0096300D01*
X0103500Y0089500D01*
X0103500Y0071800D01*
X0105900Y0062900D01*
X0114400Y0054600D01*
X0112800Y0048400D02*
X0091800Y0071900D01*
X0077800Y0071900D01*
X0045000Y0106200D01*
X0044500Y0106800D01*
X0044500Y0096800D02*
X0052200Y0089100D01*
X0052200Y0082800D01*
X0061100Y0070900D01*
X0069300Y0070400D01*
X0083700Y0054000D01*
X0083700Y0042300D01*
X0084500Y0041800D01*
X0079200Y0038700D02*
X0079200Y0045900D01*
X0048600Y0076500D01*
X0045000Y0076500D01*
X0044500Y0076800D01*
X0049100Y0072000D02*
X0059900Y0061200D01*
X0059400Y0033500D01*
X0063900Y0029000D02*
X0044100Y0029000D01*
X0033300Y0042300D01*
X0012600Y0042300D01*
X0009900Y0045000D01*
X0009900Y0081900D01*
X0014400Y0086400D01*
X0014500Y0086800D01*
X0029500Y0086800D02*
X0029700Y0086400D01*
X0029700Y0072000D01*
X0049500Y0052200D01*
X0045000Y0047700D01*
X0045000Y0042300D01*
X0044500Y0041800D01*
X0049500Y0052200D02*
X0054000Y0056700D01*
X0054500Y0056800D01*
X0073800Y0041400D02*
X0074500Y0041800D01*
X0073800Y0041400D02*
X0063900Y0029000D01*
X0063000Y0024300D02*
X0058200Y0019500D01*
X0062100Y0012600D01*
X0063900Y0012600D01*
X0064500Y0011800D01*
X0058200Y0019500D02*
X0055800Y0018900D01*
X0031500Y0018900D01*
X0025200Y0012600D01*
X0024500Y0011800D01*
X0022500Y0046800D02*
X0029500Y0046800D01*
X0022500Y0046800D02*
X0019800Y0049500D01*
X0019800Y0117900D01*
X0015300Y0122400D01*
X0015300Y0126000D01*
X0014500Y0126800D01*
X0079200Y0038700D02*
X0080800Y0033600D01*
X0095800Y0033600D01*
X0102600Y0041400D01*
X0104400Y0041400D01*
X0104500Y0041800D01*
X0109900Y0035800D02*
X0109900Y0047900D01*
X0102900Y0051400D01*
X0112800Y0048400D02*
X0114300Y0042300D01*
X0114500Y0041800D01*
X0109900Y0035800D02*
X0102700Y0028600D01*
X0100800Y0024300D02*
X0063000Y0024300D01*
X0064800Y0020700D02*
X0065700Y0020700D01*
X0073800Y0012600D01*
X0074500Y0011800D01*
X0100800Y0024300D02*
X0112500Y0012600D01*
X0114300Y0012600D01*
X0114500Y0011800D01*
D16*
X0102700Y0028600D03*
X0102900Y0051400D03*
X0114400Y0054600D03*
X0064800Y0020700D03*
X0059400Y0033500D03*
M02*
