G75*
%MOIN*%
%OFA0B0*%
%FSLAX25Y25*%
%IPPOS*%
%LPD*%
%AMOC8*
5,1,8,0,0,1.08239X$1,22.5*
%
%ADD10C,0.00600*%
%ADD11C,0.01200*%
%ADD12R,0.02400X0.03400*%
%ADD13C,0.00500*%
D10*
X0009500Y0009300D02*
X0009500Y0014300D01*
X0012000Y0016800D01*
X0027000Y0016800D01*
X0029500Y0014300D01*
X0029500Y0009300D01*
X0027000Y0006800D01*
X0012000Y0006800D01*
X0009500Y0009300D01*
X0012000Y0016800D02*
X0009500Y0019300D01*
X0009500Y0024300D01*
X0012000Y0026800D01*
X0027000Y0026800D01*
X0029500Y0024300D01*
X0029500Y0019300D01*
X0027000Y0016800D01*
X0027000Y0026800D02*
X0029500Y0029300D01*
X0029500Y0034300D01*
X0027000Y0036800D01*
X0012000Y0036800D01*
X0009500Y0034300D01*
X0009500Y0029300D01*
X0012000Y0026800D01*
X0011000Y0054300D02*
X0018000Y0054300D01*
X0018060Y0054302D01*
X0018121Y0054307D01*
X0018180Y0054316D01*
X0018239Y0054329D01*
X0018298Y0054345D01*
X0018355Y0054365D01*
X0018410Y0054388D01*
X0018465Y0054415D01*
X0018517Y0054444D01*
X0018568Y0054477D01*
X0018617Y0054513D01*
X0018663Y0054551D01*
X0018707Y0054593D01*
X0018749Y0054637D01*
X0018787Y0054683D01*
X0018823Y0054732D01*
X0018856Y0054783D01*
X0018885Y0054835D01*
X0018912Y0054890D01*
X0018935Y0054945D01*
X0018955Y0055002D01*
X0018971Y0055061D01*
X0018984Y0055120D01*
X0018993Y0055179D01*
X0018998Y0055240D01*
X0019000Y0055300D01*
X0019000Y0056800D01*
X0018500Y0057300D01*
X0018500Y0076300D01*
X0019000Y0076800D01*
X0019000Y0078300D01*
X0018998Y0078360D01*
X0018993Y0078421D01*
X0018984Y0078480D01*
X0018971Y0078539D01*
X0018955Y0078598D01*
X0018935Y0078655D01*
X0018912Y0078710D01*
X0018885Y0078765D01*
X0018856Y0078817D01*
X0018823Y0078868D01*
X0018787Y0078917D01*
X0018749Y0078963D01*
X0018707Y0079007D01*
X0018663Y0079049D01*
X0018617Y0079087D01*
X0018568Y0079123D01*
X0018517Y0079156D01*
X0018465Y0079185D01*
X0018410Y0079212D01*
X0018355Y0079235D01*
X0018298Y0079255D01*
X0018239Y0079271D01*
X0018180Y0079284D01*
X0018121Y0079293D01*
X0018060Y0079298D01*
X0018000Y0079300D01*
X0011000Y0079300D01*
X0010940Y0079298D01*
X0010879Y0079293D01*
X0010820Y0079284D01*
X0010761Y0079271D01*
X0010702Y0079255D01*
X0010645Y0079235D01*
X0010590Y0079212D01*
X0010535Y0079185D01*
X0010483Y0079156D01*
X0010432Y0079123D01*
X0010383Y0079087D01*
X0010337Y0079049D01*
X0010293Y0079007D01*
X0010251Y0078963D01*
X0010213Y0078917D01*
X0010177Y0078868D01*
X0010144Y0078817D01*
X0010115Y0078765D01*
X0010088Y0078710D01*
X0010065Y0078655D01*
X0010045Y0078598D01*
X0010029Y0078539D01*
X0010016Y0078480D01*
X0010007Y0078421D01*
X0010002Y0078360D01*
X0010000Y0078300D01*
X0010000Y0076800D01*
X0010500Y0076300D01*
X0010500Y0057300D01*
X0010000Y0056800D01*
X0010000Y0055300D01*
X0010002Y0055240D01*
X0010007Y0055179D01*
X0010016Y0055120D01*
X0010029Y0055061D01*
X0010045Y0055002D01*
X0010065Y0054945D01*
X0010088Y0054890D01*
X0010115Y0054835D01*
X0010144Y0054783D01*
X0010177Y0054732D01*
X0010213Y0054683D01*
X0010251Y0054637D01*
X0010293Y0054593D01*
X0010337Y0054551D01*
X0010383Y0054513D01*
X0010432Y0054477D01*
X0010483Y0054444D01*
X0010535Y0054415D01*
X0010590Y0054388D01*
X0010645Y0054365D01*
X0010702Y0054345D01*
X0010761Y0054329D01*
X0010820Y0054316D01*
X0010879Y0054307D01*
X0010940Y0054302D01*
X0011000Y0054300D01*
X0025000Y0055300D02*
X0025000Y0056800D01*
X0025500Y0057300D01*
X0025500Y0076300D01*
X0025000Y0076800D01*
X0025000Y0078300D01*
X0025002Y0078360D01*
X0025007Y0078421D01*
X0025016Y0078480D01*
X0025029Y0078539D01*
X0025045Y0078598D01*
X0025065Y0078655D01*
X0025088Y0078710D01*
X0025115Y0078765D01*
X0025144Y0078817D01*
X0025177Y0078868D01*
X0025213Y0078917D01*
X0025251Y0078963D01*
X0025293Y0079007D01*
X0025337Y0079049D01*
X0025383Y0079087D01*
X0025432Y0079123D01*
X0025483Y0079156D01*
X0025535Y0079185D01*
X0025590Y0079212D01*
X0025645Y0079235D01*
X0025702Y0079255D01*
X0025761Y0079271D01*
X0025820Y0079284D01*
X0025879Y0079293D01*
X0025940Y0079298D01*
X0026000Y0079300D01*
X0033000Y0079300D01*
X0033060Y0079298D01*
X0033121Y0079293D01*
X0033180Y0079284D01*
X0033239Y0079271D01*
X0033298Y0079255D01*
X0033355Y0079235D01*
X0033410Y0079212D01*
X0033465Y0079185D01*
X0033517Y0079156D01*
X0033568Y0079123D01*
X0033617Y0079087D01*
X0033663Y0079049D01*
X0033707Y0079007D01*
X0033749Y0078963D01*
X0033787Y0078917D01*
X0033823Y0078868D01*
X0033856Y0078817D01*
X0033885Y0078765D01*
X0033912Y0078710D01*
X0033935Y0078655D01*
X0033955Y0078598D01*
X0033971Y0078539D01*
X0033984Y0078480D01*
X0033993Y0078421D01*
X0033998Y0078360D01*
X0034000Y0078300D01*
X0034000Y0076800D01*
X0033500Y0076300D01*
X0033500Y0057300D01*
X0034000Y0056800D01*
X0034000Y0055300D01*
X0033998Y0055240D01*
X0033993Y0055179D01*
X0033984Y0055120D01*
X0033971Y0055061D01*
X0033955Y0055002D01*
X0033935Y0054945D01*
X0033912Y0054890D01*
X0033885Y0054835D01*
X0033856Y0054783D01*
X0033823Y0054732D01*
X0033787Y0054683D01*
X0033749Y0054637D01*
X0033707Y0054593D01*
X0033663Y0054551D01*
X0033617Y0054513D01*
X0033568Y0054477D01*
X0033517Y0054444D01*
X0033465Y0054415D01*
X0033410Y0054388D01*
X0033355Y0054365D01*
X0033298Y0054345D01*
X0033239Y0054329D01*
X0033180Y0054316D01*
X0033121Y0054307D01*
X0033060Y0054302D01*
X0033000Y0054300D01*
X0026000Y0054300D01*
X0025940Y0054302D01*
X0025879Y0054307D01*
X0025820Y0054316D01*
X0025761Y0054329D01*
X0025702Y0054345D01*
X0025645Y0054365D01*
X0025590Y0054388D01*
X0025535Y0054415D01*
X0025483Y0054444D01*
X0025432Y0054477D01*
X0025383Y0054513D01*
X0025337Y0054551D01*
X0025293Y0054593D01*
X0025251Y0054637D01*
X0025213Y0054683D01*
X0025177Y0054732D01*
X0025144Y0054783D01*
X0025115Y0054835D01*
X0025088Y0054890D01*
X0025065Y0054945D01*
X0025045Y0055002D01*
X0025029Y0055061D01*
X0025016Y0055120D01*
X0025007Y0055179D01*
X0025002Y0055240D01*
X0025000Y0055300D01*
X0039500Y0064300D02*
X0039500Y0069300D01*
X0042000Y0071800D01*
X0039500Y0074300D01*
X0039500Y0079300D01*
X0042000Y0081800D01*
X0039500Y0084300D01*
X0039500Y0089300D01*
X0042000Y0091800D01*
X0039500Y0094300D01*
X0039500Y0099300D01*
X0042000Y0101800D01*
X0039500Y0104300D01*
X0039500Y0109300D01*
X0042000Y0111800D01*
X0039500Y0114300D01*
X0039500Y0119300D01*
X0042000Y0121800D01*
X0039500Y0124300D01*
X0039500Y0129300D01*
X0042000Y0131800D01*
X0047000Y0131800D01*
X0049500Y0129300D01*
X0049500Y0124300D01*
X0047000Y0121800D01*
X0049500Y0119300D01*
X0049500Y0114300D01*
X0047000Y0111800D01*
X0049500Y0109300D01*
X0049500Y0104300D01*
X0047000Y0101800D01*
X0049500Y0099300D01*
X0049500Y0094300D01*
X0047000Y0091800D01*
X0049500Y0089300D01*
X0049500Y0084300D01*
X0047000Y0081800D01*
X0049500Y0079300D01*
X0049500Y0074300D01*
X0047000Y0071800D01*
X0049500Y0069300D01*
X0049500Y0064300D01*
X0047000Y0061800D01*
X0042000Y0061800D01*
X0039500Y0064300D01*
X0058000Y0061300D02*
X0071000Y0061300D01*
X0071087Y0061298D01*
X0071174Y0061292D01*
X0071261Y0061283D01*
X0071347Y0061270D01*
X0071433Y0061253D01*
X0071518Y0061232D01*
X0071601Y0061207D01*
X0071684Y0061179D01*
X0071765Y0061148D01*
X0071845Y0061113D01*
X0071923Y0061074D01*
X0072000Y0061032D01*
X0072075Y0060987D01*
X0072147Y0060938D01*
X0072218Y0060887D01*
X0072286Y0060832D01*
X0072351Y0060775D01*
X0072414Y0060714D01*
X0072475Y0060651D01*
X0072532Y0060586D01*
X0072587Y0060518D01*
X0072638Y0060447D01*
X0072687Y0060375D01*
X0072732Y0060300D01*
X0072774Y0060223D01*
X0072813Y0060145D01*
X0072848Y0060065D01*
X0072879Y0059984D01*
X0072907Y0059901D01*
X0072932Y0059818D01*
X0072953Y0059733D01*
X0072970Y0059647D01*
X0072983Y0059561D01*
X0072992Y0059474D01*
X0072998Y0059387D01*
X0073000Y0059300D01*
X0069500Y0056800D02*
X0065800Y0056800D01*
X0063300Y0056800D02*
X0059500Y0056800D01*
X0056000Y0054300D02*
X0056002Y0054213D01*
X0056008Y0054126D01*
X0056017Y0054039D01*
X0056030Y0053953D01*
X0056047Y0053867D01*
X0056068Y0053782D01*
X0056093Y0053699D01*
X0056121Y0053616D01*
X0056152Y0053535D01*
X0056187Y0053455D01*
X0056226Y0053377D01*
X0056268Y0053300D01*
X0056313Y0053225D01*
X0056362Y0053153D01*
X0056413Y0053082D01*
X0056468Y0053014D01*
X0056525Y0052949D01*
X0056586Y0052886D01*
X0056649Y0052825D01*
X0056714Y0052768D01*
X0056782Y0052713D01*
X0056853Y0052662D01*
X0056925Y0052613D01*
X0057000Y0052568D01*
X0057077Y0052526D01*
X0057155Y0052487D01*
X0057235Y0052452D01*
X0057316Y0052421D01*
X0057399Y0052393D01*
X0057482Y0052368D01*
X0057567Y0052347D01*
X0057653Y0052330D01*
X0057739Y0052317D01*
X0057826Y0052308D01*
X0057913Y0052302D01*
X0058000Y0052300D01*
X0071000Y0052300D01*
X0071087Y0052302D01*
X0071174Y0052308D01*
X0071261Y0052317D01*
X0071347Y0052330D01*
X0071433Y0052347D01*
X0071518Y0052368D01*
X0071601Y0052393D01*
X0071684Y0052421D01*
X0071765Y0052452D01*
X0071845Y0052487D01*
X0071923Y0052526D01*
X0072000Y0052568D01*
X0072075Y0052613D01*
X0072147Y0052662D01*
X0072218Y0052713D01*
X0072286Y0052768D01*
X0072351Y0052825D01*
X0072414Y0052886D01*
X0072475Y0052949D01*
X0072532Y0053014D01*
X0072587Y0053082D01*
X0072638Y0053153D01*
X0072687Y0053225D01*
X0072732Y0053300D01*
X0072774Y0053377D01*
X0072813Y0053455D01*
X0072848Y0053535D01*
X0072879Y0053616D01*
X0072907Y0053699D01*
X0072932Y0053782D01*
X0072953Y0053867D01*
X0072970Y0053953D01*
X0072983Y0054039D01*
X0072992Y0054126D01*
X0072998Y0054213D01*
X0073000Y0054300D01*
X0079500Y0061800D02*
X0089500Y0061800D01*
X0089500Y0131800D01*
X0095500Y0131800D01*
X0095502Y0131674D01*
X0095508Y0131549D01*
X0095518Y0131424D01*
X0095532Y0131299D01*
X0095549Y0131174D01*
X0095571Y0131050D01*
X0095596Y0130927D01*
X0095626Y0130805D01*
X0095659Y0130684D01*
X0095696Y0130564D01*
X0095736Y0130445D01*
X0095781Y0130328D01*
X0095829Y0130211D01*
X0095881Y0130097D01*
X0095936Y0129984D01*
X0095995Y0129873D01*
X0096057Y0129764D01*
X0096123Y0129657D01*
X0096192Y0129552D01*
X0096264Y0129449D01*
X0096339Y0129348D01*
X0096418Y0129250D01*
X0096500Y0129155D01*
X0096584Y0129062D01*
X0096672Y0128972D01*
X0096762Y0128884D01*
X0096855Y0128800D01*
X0096950Y0128718D01*
X0097048Y0128639D01*
X0097149Y0128564D01*
X0097252Y0128492D01*
X0097357Y0128423D01*
X0097464Y0128357D01*
X0097573Y0128295D01*
X0097684Y0128236D01*
X0097797Y0128181D01*
X0097911Y0128129D01*
X0098028Y0128081D01*
X0098145Y0128036D01*
X0098264Y0127996D01*
X0098384Y0127959D01*
X0098505Y0127926D01*
X0098627Y0127896D01*
X0098750Y0127871D01*
X0098874Y0127849D01*
X0098999Y0127832D01*
X0099124Y0127818D01*
X0099249Y0127808D01*
X0099374Y0127802D01*
X0099500Y0127800D01*
X0099626Y0127802D01*
X0099751Y0127808D01*
X0099876Y0127818D01*
X0100001Y0127832D01*
X0100126Y0127849D01*
X0100250Y0127871D01*
X0100373Y0127896D01*
X0100495Y0127926D01*
X0100616Y0127959D01*
X0100736Y0127996D01*
X0100855Y0128036D01*
X0100972Y0128081D01*
X0101089Y0128129D01*
X0101203Y0128181D01*
X0101316Y0128236D01*
X0101427Y0128295D01*
X0101536Y0128357D01*
X0101643Y0128423D01*
X0101748Y0128492D01*
X0101851Y0128564D01*
X0101952Y0128639D01*
X0102050Y0128718D01*
X0102145Y0128800D01*
X0102238Y0128884D01*
X0102328Y0128972D01*
X0102416Y0129062D01*
X0102500Y0129155D01*
X0102582Y0129250D01*
X0102661Y0129348D01*
X0102736Y0129449D01*
X0102808Y0129552D01*
X0102877Y0129657D01*
X0102943Y0129764D01*
X0103005Y0129873D01*
X0103064Y0129984D01*
X0103119Y0130097D01*
X0103171Y0130211D01*
X0103219Y0130328D01*
X0103264Y0130445D01*
X0103304Y0130564D01*
X0103341Y0130684D01*
X0103374Y0130805D01*
X0103404Y0130927D01*
X0103429Y0131050D01*
X0103451Y0131174D01*
X0103468Y0131299D01*
X0103482Y0131424D01*
X0103492Y0131549D01*
X0103498Y0131674D01*
X0103500Y0131800D01*
X0109500Y0131800D01*
X0109500Y0061800D01*
X0089500Y0061800D01*
X0079500Y0061800D02*
X0079500Y0131800D01*
X0089500Y0131800D01*
X0109500Y0131800D02*
X0119500Y0131800D01*
X0119500Y0061800D01*
X0109500Y0061800D01*
X0119500Y0037800D02*
X0039500Y0037800D01*
X0039500Y0029300D01*
X0039598Y0029298D01*
X0039696Y0029292D01*
X0039794Y0029283D01*
X0039891Y0029269D01*
X0039988Y0029252D01*
X0040084Y0029231D01*
X0040179Y0029206D01*
X0040273Y0029178D01*
X0040365Y0029145D01*
X0040457Y0029110D01*
X0040547Y0029070D01*
X0040635Y0029028D01*
X0040722Y0028981D01*
X0040806Y0028932D01*
X0040889Y0028879D01*
X0040969Y0028823D01*
X0041048Y0028763D01*
X0041124Y0028701D01*
X0041197Y0028636D01*
X0041268Y0028568D01*
X0041336Y0028497D01*
X0041401Y0028424D01*
X0041463Y0028348D01*
X0041523Y0028269D01*
X0041579Y0028189D01*
X0041632Y0028106D01*
X0041681Y0028022D01*
X0041728Y0027935D01*
X0041770Y0027847D01*
X0041810Y0027757D01*
X0041845Y0027665D01*
X0041878Y0027573D01*
X0041906Y0027479D01*
X0041931Y0027384D01*
X0041952Y0027288D01*
X0041969Y0027191D01*
X0041983Y0027094D01*
X0041992Y0026996D01*
X0041998Y0026898D01*
X0042000Y0026800D01*
X0041998Y0026702D01*
X0041992Y0026604D01*
X0041983Y0026506D01*
X0041969Y0026409D01*
X0041952Y0026312D01*
X0041931Y0026216D01*
X0041906Y0026121D01*
X0041878Y0026027D01*
X0041845Y0025935D01*
X0041810Y0025843D01*
X0041770Y0025753D01*
X0041728Y0025665D01*
X0041681Y0025578D01*
X0041632Y0025494D01*
X0041579Y0025411D01*
X0041523Y0025331D01*
X0041463Y0025252D01*
X0041401Y0025176D01*
X0041336Y0025103D01*
X0041268Y0025032D01*
X0041197Y0024964D01*
X0041124Y0024899D01*
X0041048Y0024837D01*
X0040969Y0024777D01*
X0040889Y0024721D01*
X0040806Y0024668D01*
X0040722Y0024619D01*
X0040635Y0024572D01*
X0040547Y0024530D01*
X0040457Y0024490D01*
X0040365Y0024455D01*
X0040273Y0024422D01*
X0040179Y0024394D01*
X0040084Y0024369D01*
X0039988Y0024348D01*
X0039891Y0024331D01*
X0039794Y0024317D01*
X0039696Y0024308D01*
X0039598Y0024302D01*
X0039500Y0024300D01*
X0039500Y0015800D01*
X0119500Y0015800D01*
X0119500Y0037800D01*
X0069000Y0085300D02*
X0069000Y0086800D01*
X0068500Y0087300D01*
X0068500Y0106300D01*
X0069000Y0106800D01*
X0069000Y0108300D01*
X0068998Y0108360D01*
X0068993Y0108421D01*
X0068984Y0108480D01*
X0068971Y0108539D01*
X0068955Y0108598D01*
X0068935Y0108655D01*
X0068912Y0108710D01*
X0068885Y0108765D01*
X0068856Y0108817D01*
X0068823Y0108868D01*
X0068787Y0108917D01*
X0068749Y0108963D01*
X0068707Y0109007D01*
X0068663Y0109049D01*
X0068617Y0109087D01*
X0068568Y0109123D01*
X0068517Y0109156D01*
X0068465Y0109185D01*
X0068410Y0109212D01*
X0068355Y0109235D01*
X0068298Y0109255D01*
X0068239Y0109271D01*
X0068180Y0109284D01*
X0068121Y0109293D01*
X0068060Y0109298D01*
X0068000Y0109300D01*
X0061000Y0109300D01*
X0060940Y0109298D01*
X0060879Y0109293D01*
X0060820Y0109284D01*
X0060761Y0109271D01*
X0060702Y0109255D01*
X0060645Y0109235D01*
X0060590Y0109212D01*
X0060535Y0109185D01*
X0060483Y0109156D01*
X0060432Y0109123D01*
X0060383Y0109087D01*
X0060337Y0109049D01*
X0060293Y0109007D01*
X0060251Y0108963D01*
X0060213Y0108917D01*
X0060177Y0108868D01*
X0060144Y0108817D01*
X0060115Y0108765D01*
X0060088Y0108710D01*
X0060065Y0108655D01*
X0060045Y0108598D01*
X0060029Y0108539D01*
X0060016Y0108480D01*
X0060007Y0108421D01*
X0060002Y0108360D01*
X0060000Y0108300D01*
X0060000Y0106800D01*
X0060500Y0106300D01*
X0060500Y0087300D01*
X0060000Y0086800D01*
X0060000Y0085300D01*
X0060002Y0085240D01*
X0060007Y0085179D01*
X0060016Y0085120D01*
X0060029Y0085061D01*
X0060045Y0085002D01*
X0060065Y0084945D01*
X0060088Y0084890D01*
X0060115Y0084835D01*
X0060144Y0084783D01*
X0060177Y0084732D01*
X0060213Y0084683D01*
X0060251Y0084637D01*
X0060293Y0084593D01*
X0060337Y0084551D01*
X0060383Y0084513D01*
X0060432Y0084477D01*
X0060483Y0084444D01*
X0060535Y0084415D01*
X0060590Y0084388D01*
X0060645Y0084365D01*
X0060702Y0084345D01*
X0060761Y0084329D01*
X0060820Y0084316D01*
X0060879Y0084307D01*
X0060940Y0084302D01*
X0061000Y0084300D01*
X0068000Y0084300D01*
X0068060Y0084302D01*
X0068121Y0084307D01*
X0068180Y0084316D01*
X0068239Y0084329D01*
X0068298Y0084345D01*
X0068355Y0084365D01*
X0068410Y0084388D01*
X0068465Y0084415D01*
X0068517Y0084444D01*
X0068568Y0084477D01*
X0068617Y0084513D01*
X0068663Y0084551D01*
X0068707Y0084593D01*
X0068749Y0084637D01*
X0068787Y0084683D01*
X0068823Y0084732D01*
X0068856Y0084783D01*
X0068885Y0084835D01*
X0068912Y0084890D01*
X0068935Y0084945D01*
X0068955Y0085002D01*
X0068971Y0085061D01*
X0068984Y0085120D01*
X0068993Y0085179D01*
X0068998Y0085240D01*
X0069000Y0085300D01*
X0058000Y0061300D02*
X0057913Y0061298D01*
X0057826Y0061292D01*
X0057739Y0061283D01*
X0057653Y0061270D01*
X0057567Y0061253D01*
X0057482Y0061232D01*
X0057399Y0061207D01*
X0057316Y0061179D01*
X0057235Y0061148D01*
X0057155Y0061113D01*
X0057077Y0061074D01*
X0057000Y0061032D01*
X0056925Y0060987D01*
X0056853Y0060938D01*
X0056782Y0060887D01*
X0056714Y0060832D01*
X0056649Y0060775D01*
X0056586Y0060714D01*
X0056525Y0060651D01*
X0056468Y0060586D01*
X0056413Y0060518D01*
X0056362Y0060447D01*
X0056313Y0060375D01*
X0056268Y0060300D01*
X0056226Y0060223D01*
X0056187Y0060145D01*
X0056152Y0060065D01*
X0056121Y0059984D01*
X0056093Y0059901D01*
X0056068Y0059818D01*
X0056047Y0059733D01*
X0056030Y0059647D01*
X0056017Y0059561D01*
X0056008Y0059474D01*
X0056002Y0059387D01*
X0056000Y0059300D01*
X0027000Y0101800D02*
X0012000Y0101800D01*
X0009500Y0104300D01*
X0009500Y0109300D01*
X0012000Y0111800D01*
X0009500Y0114300D01*
X0009500Y0119300D01*
X0012000Y0121800D01*
X0009500Y0124300D01*
X0009500Y0129300D01*
X0012000Y0131800D01*
X0027000Y0131800D01*
X0029500Y0129300D01*
X0029500Y0124300D01*
X0027000Y0121800D01*
X0029500Y0119300D01*
X0029500Y0114300D01*
X0027000Y0111800D01*
X0029500Y0109300D01*
X0029500Y0104300D01*
X0027000Y0101800D01*
D11*
X0063300Y0059800D02*
X0063300Y0056800D01*
X0063300Y0053800D01*
X0065800Y0053800D02*
X0065800Y0056800D01*
X0065800Y0059800D01*
D12*
X0064500Y0082600D03*
X0064500Y0111000D03*
X0029500Y0081000D03*
X0014500Y0081000D03*
X0014500Y0052600D03*
X0029500Y0052600D03*
D13*
X0051246Y0063946D02*
X0051246Y0066949D01*
X0051997Y0066949D01*
X0054999Y0063946D01*
X0055750Y0063946D01*
X0025999Y0096446D02*
X0026750Y0097197D01*
X0026750Y0098698D01*
X0025999Y0099449D01*
X0025249Y0099449D01*
X0024498Y0098698D01*
X0024498Y0096446D01*
X0025999Y0096446D01*
X0024498Y0096446D02*
X0022997Y0097947D01*
X0022246Y0099449D01*
X0034747Y0124946D02*
X0033246Y0126447D01*
X0037750Y0126447D01*
X0037750Y0124946D02*
X0037750Y0127949D01*
X0007750Y0127949D02*
X0007750Y0124946D01*
X0007750Y0126447D02*
X0003246Y0126447D01*
X0004747Y0124946D01*
M02*
